<svg id="Layer_1" data-name="Layer 1" xmlns="http://www.w3.org/2000/svg" viewBox="0 0 166.52 40.7"><path d="M19.5,7S31,19.2,31,25.5a11.5,11.5,0,0,1-23,0C8,19.2,19.5,7,19.5,7m0-5h0a4.84,4.84,0,0,0-3.6,1.6C12.9,6.8,3,17.8,3,25.5a16.5,16.5,0,0,0,33,0c0-7.7-9.8-18.8-12.9-21.9A4.84,4.84,0,0,0,19.5,2Z" transform="translate(-3 -2)" fill="#efefef"/><path d="M19.5,4.3S34.4,19.9,34.4,28A14.85,14.85,0,0,1,4.7,28C4.7,19.9,19.5,4.3,19.5,4.3Z" transform="translate(-3 -2)" fill="#77a9db" fill-rule="evenodd"/><path d="M19.5,4S33,18.2,33,25.6a13.5,13.5,0,0,1-27,0C6,18.2,19.5,4,19.5,4Z" transform="translate(-3 -2)" fill="#1c5cb4" fill-rule="evenodd"/><path d="M19.5,7S31,19.2,31,25.5a11.5,11.5,0,0,1-23,0C8,19.2,19.5,7,19.5,7m0-4h0a3.93,3.93,0,0,0-2.9,1.3C14.5,6.5,4,18,4,25.5a15.5,15.5,0,0,0,31,0c0-7.4-9.6-18.1-12.6-21.3A4.45,4.45,0,0,0,19.5,3Z" transform="translate(-3 -2)" fill="#fff"/><path d="M27.7,25.5a8.2,8.2,0,0,1-16.4,0v-.3s.8-6.9,6.7-3.2c3.9,2.5,6.4,3.1,7.9,3.2h1.8Z" transform="translate(-3 -2)" fill="#398bfc"/><path d="M55.9,23.3H48.4v6.5H57v1.1H47.1V15.2H57v1.1H48.4v5.9h7.5Z" transform="translate(-3 -2)" fill="#1a1a1a"/><path d="M62,27.7l.4,1.4h.1L66,19.2h1.4l-5,13.5a5.61,5.61,0,0,1-1.2,2,2.86,2.86,0,0,1-2.1.8h-.5a4.33,4.33,0,0,1-.5-.1l.2-1.1h.8a1.49,1.49,0,0,0,1.3-.6,9.88,9.88,0,0,0,.9-1.5l.6-1.6L57.4,19.1h1.4Z" transform="translate(-3 -2)" fill="#1a1a1a"/><path d="M73.2,31.1a4.38,4.38,0,0,1-3.6-1.6,5.69,5.69,0,0,1-1.4-4.1v-.6a6.17,6.17,0,0,1,1.4-4.1,4.45,4.45,0,0,1,3.5-1.6,4.6,4.6,0,0,1,3.4,1.4,4.78,4.78,0,0,1,1.2,3.6v1.1H69.5v.3a5.18,5.18,0,0,0,1,3.3,3.23,3.23,0,0,0,2.7,1.3,6.65,6.65,0,0,0,2.1-.3,2.81,2.81,0,0,0,1.4-1l.5.9a4.18,4.18,0,0,1-1.7,1.1A7.55,7.55,0,0,1,73.2,31.1Zm-.1-11a3,3,0,0,0-2.4,1.1,4.72,4.72,0,0,0-1.1,2.7V24h6.8v-.3a3.49,3.49,0,0,0-.9-2.5A3,3,0,0,0,73.1,20.1Z" transform="translate(-3 -2)" fill="#1a1a1a"/><path d="M92.7,24.3A7.11,7.11,0,0,1,91,29.2a5.87,5.87,0,0,1-4.5,1.9,5.48,5.48,0,0,1-4.4-1.9,7.06,7.06,0,0,1-1.6-4.9V21.8a7.23,7.23,0,0,1,1.6-4.9A5.48,5.48,0,0,1,86.5,15,5.68,5.68,0,0,1,91,16.9a6.82,6.82,0,0,1,1.7,4.9Zm-1.3-2.5a5.94,5.94,0,0,0-1.3-4.1,4.47,4.47,0,0,0-3.6-1.5A4.4,4.4,0,0,0,83,17.7a6.45,6.45,0,0,0-1.2,4.1v2.6a5.94,5.94,0,0,0,1.3,4.1A4.26,4.26,0,0,0,86.6,30a4.61,4.61,0,0,0,3.6-1.5,6.48,6.48,0,0,0,1.3-4.1V21.8Z" transform="translate(-3 -2)" fill="#1a1a1a"/><path d="M96.6,19.2l.1,2a5,5,0,0,1,1.5-1.7,4.14,4.14,0,0,1,2.3-.6,3.56,3.56,0,0,1,2.9,1.2,5.34,5.34,0,0,1,1,3.6v7.1h-1.3V23.7a4.11,4.11,0,0,0-.7-2.8,2.52,2.52,0,0,0-2.1-.8,3.23,3.23,0,0,0-2.2.7,3.47,3.47,0,0,0-1.2,1.9v8.1H95.6V19.2Z" transform="translate(-3 -2)" fill="#1a1a1a"/><path d="M109.8,26.4l.5,2.4h.1l.6-2.4,3.3-11.2h1.2l3.3,11.2.6,2.4h.1l.5-2.4,2.8-11.2h1.3l-4,15.6h-1.2l-3.5-12-.4-1.6h-.1l-.4,1.6-3.5,12h-1.2l-4-15.6h1.3Z" transform="translate(-3 -2)" fill="#1a1a1a"/><path d="M132.8,30.9c-.1-.4-.1-.7-.2-1s-.1-.6-.1-.9a5,5,0,0,1-1.7,1.5,4.75,4.75,0,0,1-2.4.6,3.57,3.57,0,0,1-2.6-.9,3.24,3.24,0,0,1-.9-2.4,3.14,3.14,0,0,1,1.4-2.6,6.86,6.86,0,0,1,3.8-1h2.6V22.8a2.79,2.79,0,0,0-.8-2,3.07,3.07,0,0,0-2.2-.7,3.23,3.23,0,0,0-2.2.7,2.09,2.09,0,0,0-.9,1.7h-1.2v-.1a2.94,2.94,0,0,1,1.2-2.3,4.72,4.72,0,0,1,3.2-1,4.45,4.45,0,0,1,3.1,1,3.49,3.49,0,0,1,1.2,2.8v5.7a4.87,4.87,0,0,0,.1,1.2,3.59,3.59,0,0,0,.2,1.1Zm-4.2-.9a4.75,4.75,0,0,0,2.4-.6,3.53,3.53,0,0,0,1.5-1.7V25.3H130a4.65,4.65,0,0,0-2.8.7,2.17,2.17,0,0,0-1,1.9,1.8,1.8,0,0,0,.7,1.5A2.06,2.06,0,0,0,128.6,30Z" transform="translate(-3 -2)" fill="#1a1a1a"/><path d="M138.7,16.3v3h2.6v1.1h-2.6V28a2.2,2.2,0,0,0,.4,1.6,1.43,1.43,0,0,0,1.1.5h.6a2,2,0,0,0,.7-.1l.2,1a1.88,1.88,0,0,1-.8.2c-.3,0-.6.1-.9.1a2.41,2.41,0,0,1-1.9-.8,3.29,3.29,0,0,1-.7-2.4V20.5h-2V19.4h2v-3l1.3-.1Z" transform="translate(-3 -2)" fill="#1a1a1a"/><path d="M147.5,31.1a4.38,4.38,0,0,1-3.6-1.6,5.69,5.69,0,0,1-1.4-4.1v-.6a6.17,6.17,0,0,1,1.4-4.1,4.45,4.45,0,0,1,3.5-1.6,4.6,4.6,0,0,1,3.4,1.4,4.78,4.78,0,0,1,1.2,3.6v1.1h-8.2v.3a5.18,5.18,0,0,0,1,3.3,3.23,3.23,0,0,0,2.7,1.3,6.65,6.65,0,0,0,2.1-.3,2.81,2.81,0,0,0,1.4-1l.5.9a4.18,4.18,0,0,1-1.7,1.1A7.55,7.55,0,0,1,147.5,31.1Zm-.2-11a3,3,0,0,0-2.4,1.1,4.72,4.72,0,0,0-1.1,2.7V24h6.8v-.3a3.49,3.49,0,0,0-.9-2.5A3,3,0,0,0,147.3,20.1Z" transform="translate(-3 -2)" fill="#1a1a1a"/><path d="M159.4,20.4l-1-.1a2.72,2.72,0,0,0-2,.7,4,4,0,0,0-1.1,1.9v8H154V19.2h1.1l.2,1.9v.1a3.91,3.91,0,0,1,1.4-1.7,3.38,3.38,0,0,1,2-.6h.5c.2,0,.3.1.4.1Z" transform="translate(-3 -2)" fill="#1a1a1a"/><g style="isolation:isolate"><path d="M166.23,17.94h-1v1.72h-.56V15.4h1.41a1.67,1.67,0,0,1,1.11.33,1.15,1.15,0,0,1,.39.95,1.12,1.12,0,0,1-.22.7,1.31,1.31,0,0,1-.6.44l1,1.81v0h-.6Zm-1-.46h.87a.92.92,0,0,0,.66-.22.72.72,0,0,0,.25-.58.81.81,0,0,0-.23-.61,1,1,0,0,0-.69-.21h-.86Z" transform="translate(-3 -2)"/></g><circle cx="163" cy="15.6" r="3.4" fill="none" stroke="#000" stroke-miterlimit="10" stroke-width="0.25"/></svg>